<mxfile host="app.diagrams.net" modified="2023-10-03T08:54:53.129Z" agent="Mozilla/5.0 (Windows NT 10.0; Win64; x64) AppleWebKit/537.36 (KHTML, like Gecko) Chrome/117.0.0.0 Safari/537.36 Edg/117.0.2045.47" version="22.0.1" etag="V3CfAOU9wFR_3kP4bp-F" type="github">
  <diagram name="第 1 页" id="EQfGSvJC3iK6o-r2QsR9">
    <mxGraphModel>
      <root>
        <mxCell id="0" />
        <mxCell id="1" parent="0" />
      </root>
    </mxGraphModel>
  </diagram>
</mxfile>
